<?xml version="1.0" encoding="utf-8"?>
<!-- Generator: Adobe Illustrator 23.1.1, SVG Export Plug-In . SVG Version: 6.00 Build 0)  -->
<svg version="1.1" id="Layer_1" xmlns="http://www.w3.org/2000/svg" xmlns:xlink="http://www.w3.org/1999/xlink" x="0px" y="0px"
	 viewBox="0 0 240.9 42.3" style="enable-background:new 0 0 240.9 42.3;" xml:space="preserve">
<style type="text/css">
	.st0{fill:#688194;}
	.st1{fill:#333333;}
	.st2{fill:url(#SVGID_1_);}
	.st3{fill:url(#SVGID_2_);}
	.st4{fill:url(#SVGID_3_);}
	.st5{fill:url(#SVGID_4_);}
	.st6{fill:url(#SVGID_5_);}
	.st7{fill:url(#SVGID_6_);}
	.st8{fill:url(#SVGID_7_);}
	.st9{fill:url(#SVGID_8_);}
	.st10{fill:url(#SVGID_9_);}
	.st11{fill:url(#SVGID_10_);}
	.st12{fill:url(#SVGID_11_);}
	.st13{fill:url(#SVGID_12_);}
	.st14{fill:url(#SVGID_13_);}
	.st15{fill:none;}
</style>
<g id="page__x23_2">
	<path class="st0" d="M38.7,3.6v35.3H3.4V3.6H38.7 M42,0.3H0v42h42V0.3L42,0.3z"/>
	<path class="st1" d="M66.3,10.2h4.9v22.1h-4.9L55.8,18.4v13.8h-4.9v-22h4.6l10.8,14.2V10.2z"/>
	<path class="st1" d="M91.5,10.2v4.4h-11v4.5h9.9v4.2h-9.9v4.6h11.3v4.4H75.6V10.2H91.5z"/>
	<path class="st1" d="M103.9,22.9l3.9-12.7h5.1l3.9,12.7l4.4-12.7h5.3l-7.7,22.1h-3.7l-4.8-15.4l-4.8,15.4h-3.6l-7.7-22.1h5.3
		L103.9,22.9z"/>
	<path class="st1" d="M134.1,14.6c-0.5,0.4-0.7,0.9-0.7,1.5s0.3,1.2,0.9,1.5c0.6,0.4,1.9,0.8,4,1.3s3.7,1.3,4.9,2.3
		c1.2,1,1.7,2.5,1.7,4.5s-0.7,3.6-2.2,4.8s-3.4,1.8-5.9,1.8c-3.5,0-6.6-1.3-9.4-3.9l2.9-3.6c2.4,2.1,4.6,3.1,6.6,3.1
		c0.9,0,1.6-0.2,2.1-0.6c0.5-0.4,0.8-0.9,0.8-1.6c0-0.7-0.3-1.2-0.8-1.6c-0.5-0.4-1.6-0.8-3.3-1.2c-2.6-0.6-4.4-1.4-5.6-2.4
		c-1.2-1-1.8-2.5-1.8-4.6s0.8-3.7,2.3-4.8c1.5-1.1,3.4-1.7,5.6-1.7c1.5,0,2.9,0.3,4.4,0.8s2.8,1.2,3.9,2.1l-2.5,3.6
		c-1.9-1.5-3.9-2.2-5.9-2.2C135.2,14,134.6,14.2,134.1,14.6z"/>
	<path class="st1" d="M169.2,10.2h4.9v22.1h-4.9l-10.5-13.8v13.8h-4.9V10.2h4.6l10.8,14.2V10.2L169.2,10.2z"/>
	<path class="st1" d="M197.4,29.2c-2.2,2.2-5,3.3-8.2,3.3c-3.3,0-6-1.1-8.2-3.3c-2.2-2.2-3.3-4.9-3.3-8.1s1.1-6,3.3-8.1
		c2.2-2.2,5-3.3,8.2-3.3c3.3,0,6,1.1,8.2,3.3c2.2,2.2,3.3,4.9,3.3,8.1C200.8,24.3,199.7,27,197.4,29.2z M195.7,21.1
		c0-2-0.6-3.6-1.9-5c-1.3-1.4-2.8-2.1-4.7-2.1s-3.4,0.7-4.7,2.1c-1.3,1.4-1.9,3.1-1.9,5c0,2,0.6,3.6,1.9,5s2.8,2.1,4.7,2.1
		s3.4-0.7,4.7-2.1C195.1,24.8,195.7,23.1,195.7,21.1z"/>
	<path class="st1" d="M210.9,22.9l3.9-12.7h5.1l3.9,12.7l4.4-12.7h5.3l-7.6,22.1h-3.7l-4.8-15.4l-4.8,15.4h-3.7l-7.7-22.1h5.3
		L210.9,22.9z"/>
	
		<linearGradient id="SVGID_1_" gradientUnits="userSpaceOnUse" x1="9.9884" y1="29.1884" x2="14.4044" y2="33.6043" gradientTransform="matrix(1 0 0 -1 0 43.8)">
		<stop  offset="0" style="stop-color:#D20000"/>
		<stop  offset="0.5" style="stop-color:#D20000"/>
		<stop  offset="0.5" style="stop-color:#EB0F00"/>
		<stop  offset="1" style="stop-color:#EB0F00"/>
	</linearGradient>
	<rect x="10" y="10.2" class="st2" width="4.4" height="4.4"/>
	
		<linearGradient id="SVGID_2_" gradientUnits="userSpaceOnUse" x1="27.6884" y1="11.4883" x2="32.1044" y2="15.9044" gradientTransform="matrix(1 0 0 -1 0 43.8)">
		<stop  offset="0" style="stop-color:#D20000"/>
		<stop  offset="0.5" style="stop-color:#D20000"/>
		<stop  offset="0.5" style="stop-color:#EB0F00"/>
		<stop  offset="1" style="stop-color:#EB0F00"/>
	</linearGradient>
	<rect x="27.7" y="27.9" class="st3" width="4.4" height="4.4"/>
	
		<linearGradient id="SVGID_3_" gradientUnits="userSpaceOnUse" x1="9.9804" y1="24.7803" x2="14.3964" y2="29.1964" gradientTransform="matrix(1 0 0 -1 0 43.8)">
		<stop  offset="0" style="stop-color:#E66820"/>
		<stop  offset="0.5" style="stop-color:#E66820"/>
		<stop  offset="0.5" style="stop-color:#EA8118"/>
		<stop  offset="1" style="stop-color:#EA8118"/>
	</linearGradient>
	<rect x="10" y="14.6" class="st4" width="4.4" height="4.4"/>
	
		<linearGradient id="SVGID_4_" gradientUnits="userSpaceOnUse" x1="27.6464" y1="15.9464" x2="32.0624" y2="20.3623" gradientTransform="matrix(1 0 0 -1 0 43.8)">
		<stop  offset="0" style="stop-color:#E66820"/>
		<stop  offset="0.5" style="stop-color:#E66820"/>
		<stop  offset="0.5" style="stop-color:#EA8118"/>
		<stop  offset="1" style="stop-color:#EA8118"/>
	</linearGradient>
	<rect x="27.7" y="23.4" class="st5" width="4.4" height="4.4"/>
	
		<linearGradient id="SVGID_5_" gradientUnits="userSpaceOnUse" x1="14.3884" y1="24.7883" x2="18.8044" y2="29.2043" gradientTransform="matrix(1 0 0 -1 0 43.8)">
		<stop  offset="0" style="stop-color:#CB2695"/>
		<stop  offset="0.5" style="stop-color:#CB2695"/>
		<stop  offset="0.5" style="stop-color:#EA58A6"/>
		<stop  offset="1" style="stop-color:#EA58A6"/>
	</linearGradient>
	<rect x="14.4" y="14.6" class="st6" width="4.4" height="4.4"/>
	
		<linearGradient id="SVGID_6_" gradientUnits="userSpaceOnUse" x1="18.7884" y1="20.3884" x2="23.2043" y2="24.8044" gradientTransform="matrix(1 0 0 -1 0 43.8)">
		<stop  offset="0" style="stop-color:#984EB6"/>
		<stop  offset="0.5" style="stop-color:#984EB6"/>
		<stop  offset="0.5" style="stop-color:#AB66BC"/>
		<stop  offset="1" style="stop-color:#AB66BC"/>
	</linearGradient>
	<rect x="18.8" y="19" class="st7" width="4.4" height="4.4"/>
	
		<linearGradient id="SVGID_7_" gradientUnits="userSpaceOnUse" x1="23.1884" y1="15.9884" x2="27.6043" y2="20.4043" gradientTransform="matrix(1 0 0 -1 0 43.8)">
		<stop  offset="0" style="stop-color:#688194"/>
		<stop  offset="0.5" style="stop-color:#688194"/>
		<stop  offset="0.5" style="stop-color:#8B9EAD"/>
		<stop  offset="1" style="stop-color:#8B9EAD"/>
	</linearGradient>
	<rect x="23.2" y="23.4" class="st8" width="4.4" height="4.4"/>
	
		<linearGradient id="SVGID_8_" gradientUnits="userSpaceOnUse" x1="9.9724" y1="20.3723" x2="14.3884" y2="24.7883" gradientTransform="matrix(1 0 0 -1 0 43.8)">
		<stop  offset="0" style="stop-color:#EBAD00"/>
		<stop  offset="0.5" style="stop-color:#EBAD00"/>
		<stop  offset="0.5" style="stop-color:#F4C33D"/>
		<stop  offset="1" style="stop-color:#F4C33D"/>
	</linearGradient>
	<rect x="10" y="19" class="st9" width="4.4" height="4.4"/>
	
		<linearGradient id="SVGID_9_" gradientUnits="userSpaceOnUse" x1="27.6545" y1="20.3545" x2="32.0705" y2="24.7705" gradientTransform="matrix(1 0 0 -1 0 43.8)">
		<stop  offset="0" style="stop-color:#EBAD00"/>
		<stop  offset="0.5" style="stop-color:#EBAD00"/>
		<stop  offset="0.5" style="stop-color:#F4C33D"/>
		<stop  offset="1" style="stop-color:#F4C33D"/>
	</linearGradient>
	<rect x="27.7" y="19" class="st10" width="4.4" height="4.4"/>
	
		<linearGradient id="SVGID_10_" gradientUnits="userSpaceOnUse" x1="9.9643" y1="15.9644" x2="14.3803" y2="20.3803" gradientTransform="matrix(1 0 0 -1 0 43.8)">
		<stop  offset="0" style="stop-color:#77B300"/>
		<stop  offset="0.5" style="stop-color:#77B300"/>
		<stop  offset="0.5" style="stop-color:#9BCB19"/>
		<stop  offset="1" style="stop-color:#9BCB19"/>
	</linearGradient>
	<rect x="10" y="23.4" class="st11" width="4.4" height="4.4"/>
	
		<linearGradient id="SVGID_11_" gradientUnits="userSpaceOnUse" x1="27.6624" y1="24.7624" x2="32.0784" y2="29.1784" gradientTransform="matrix(1 0 0 -1 0 43.8)">
		<stop  offset="0" style="stop-color:#77B300"/>
		<stop  offset="0.5" style="stop-color:#77B300"/>
		<stop  offset="0.5" style="stop-color:#9BCB19"/>
		<stop  offset="1" style="stop-color:#9BCB19"/>
	</linearGradient>
	<rect x="27.7" y="14.6" class="st12" width="4.4" height="4.4"/>
	
		<linearGradient id="SVGID_12_" gradientUnits="userSpaceOnUse" x1="10.0063" y1="11.5063" x2="14.4223" y2="15.9223" gradientTransform="matrix(1 0 0 -1 0 43.8)">
		<stop  offset="0" style="stop-color:#368BD6"/>
		<stop  offset="0.5" style="stop-color:#368BD6"/>
		<stop  offset="0.5" style="stop-color:#4B9FDD"/>
		<stop  offset="1" style="stop-color:#4B9FDD"/>
	</linearGradient>
	<rect x="10" y="27.9" class="st13" width="4.4" height="4.4"/>
	
		<linearGradient id="SVGID_13_" gradientUnits="userSpaceOnUse" x1="27.6705" y1="29.1705" x2="32.0865" y2="33.5864" gradientTransform="matrix(1 0 0 -1 0 43.8)">
		<stop  offset="0" style="stop-color:#368BD6"/>
		<stop  offset="0.5" style="stop-color:#368BD6"/>
		<stop  offset="0.5" style="stop-color:#4B9FDD"/>
		<stop  offset="1" style="stop-color:#4B9FDD"/>
	</linearGradient>
	<rect x="27.7" y="10.2" class="st14" width="4.4" height="4.4"/>
	<rect x="236.4" y="27.9" class="st1" width="4.4" height="4.4"/>
</g>
<g>
	<rect x="113.4" y="-11.1" class="st15" width="11.1" height="11.1"/>
	<rect x="-11.1" y="15.7" class="st15" width="11.1" height="11.1"/>
	<rect x="240.9" y="15.7" class="st15" width="11.1" height="11.1"/>
	<rect x="113.4" y="42.2" class="st15" width="11.1" height="11.1"/>
</g>
</svg>
